<svg xmlns="http://www.w3.org/2000/svg" viewBox="0 0 100 63.407"><title>data</title><path d="M16.235,50.106a27.256,27.256,0,0,1-3.3,3.539,28.437,28.437,0,0,1-3.419,2.7,10.715,10.715,0,0,1-2.46,1.2,7.286,7.286,0,0,1-2.279.42,6.8,6.8,0,0,1-.84-0.06,2.136,2.136,0,0,1-.87-0.3,2.18,2.18,0,0,1-.66-0.63,1.815,1.815,0,0,1-.27-1.049,5.689,5.689,0,0,1,.6-2.13q0.6-1.35,1.41-2.79t1.619-2.759q0.809-1.319,1.289-1.979a2.26,2.26,0,0,1,1.05-.81,3.343,3.343,0,0,1,.99-0.33q0.3,0,.3.18a1.131,1.131,0,0,1-.09.36,1,1,0,0,1-.21.36q-0.78,1.2-1.59,2.639t-1.47,2.79a21.658,21.658,0,0,0-1.05,2.489,5.96,5.96,0,0,0-.39,1.8,1.3,1.3,0,0,0,.39,1.05,1.57,1.57,0,0,0,1.05.33,5.471,5.471,0,0,0,2.639-.81,20.657,20.657,0,0,0,2.849-1.95,27.279,27.279,0,0,0,2.609-2.4,22.99,22.99,0,0,0,1.86-2.16q0.3-.3.33-0.15A0.887,0.887,0,0,1,16.235,50.106Zm-2.7-13.378a2.2,2.2,0,0,1-.63,1.44,1.85,1.85,0,0,1-1.41.72,0.636,0.636,0,0,1-.72-0.72,2.384,2.384,0,0,1,.57-1.5,1.734,1.734,0,0,1,1.41-.72A0.69,0.69,0,0,1,13.535,36.728Z" transform="translate(-2.137 -19.932)"/><path d="M45.988,22.212a2.933,2.933,0,0,1-.33,1.319,4.882,4.882,0,0,0-.45,1.5,0.274,0.274,0,0,1-.21.33c-0.141.021-.21-0.07-0.21-0.27a0.878,0.878,0,0,1,.06-0.33,0.88,0.88,0,0,0,.06-0.329,2.221,2.221,0,0,0-.359-1.26,2.776,2.776,0,0,0-.93-0.87,4.415,4.415,0,0,0-1.23-.48,5.722,5.722,0,0,0-1.26-.15,10.937,10.937,0,0,0-3.449.72,12.257,12.257,0,0,0-4.469,3.18,45.533,45.533,0,0,0-4.349,5.249q-2.13,2.969-4.049,6.089-1.2,1.979-2.7,4.529t-2.88,4.979q-1.381,2.43-2.46,4.319T15.4,53.286a0.85,0.85,0,0,0-.18.48,1.133,1.133,0,0,0,.48-0.36q1.019-1.019,2.1-1.979t2.339-2.1a3.548,3.548,0,0,1-.06-0.78,1.223,1.223,0,0,1,.75-0.93,5.483,5.483,0,0,1,1.17-.57c0.08,0,.12.081,0.12,0.24a0.66,0.66,0,0,0,.06.3q0.3-.238,1.38-1.17t2.339-1.92q1.26-.99,2.309-1.8a3.97,3.97,0,0,1,1.289-.81,0.46,0.46,0,0,1,.33.15,1.929,1.929,0,0,1,.33.629,0.657,0.657,0,0,1-.6.54,9.54,9.54,0,0,0-1.74.84,23.275,23.275,0,0,0-2.07,1.38q-1.05.78-2.039,1.56t-1.59,1.319a16.1,16.1,0,0,0,.24,1.74q0.181,0.96.42,1.92t0.57,1.89a14.478,14.478,0,0,0,.69,1.649,1.944,1.944,0,0,0,.87.96,2.475,2.475,0,0,0,1.17.3,3.8,3.8,0,0,0,2.01-.72,14.805,14.805,0,0,0,2.25-1.83,28.068,28.068,0,0,0,2.189-2.4q1.05-1.29,1.83-2.43c0.12-.2.249-0.24,0.39-0.12a0.216,0.216,0,0,1,.03.36q-0.9,1.2-1.92,2.4t-2.069,2.279a25.6,25.6,0,0,1-2.07,1.92,13.625,13.625,0,0,1-1.86,1.32,5.726,5.726,0,0,1-2.459.72,2.633,2.633,0,0,1-1.38-.36,2.928,2.928,0,0,1-1.05-1.29,13.018,13.018,0,0,1-.84-2.549q-0.391-1.62-.87-4.139-1.921,1.86-3.84,3.839a20.982,20.982,0,0,0-3.239,4.319,0.468,0.468,0,0,1-.48.3,0.736,0.736,0,0,1-.66-0.51,2.208,2.208,0,0,1-.24-0.93V56.7a0.531,0.531,0,0,1,.06-0.24,19.411,19.411,0,0,0,1.26-2.07q0.659-1.228,1.649-3t2.43-4.229q1.439-2.458,3.539-5.818,0.959-1.559,2.19-3.389t2.58-3.719q1.349-1.89,2.759-3.719t2.729-3.329q0.959-1.08,2.07-2.19a24.4,24.4,0,0,1,2.309-2.039,19.864,19.864,0,0,1,2.49-1.65,9.81,9.81,0,0,1,2.609-1.019q0.6-.12,1.17-0.24a5.371,5.371,0,0,1,1.11-.12,4.173,4.173,0,0,1,1.05.15,4.464,4.464,0,0,1,1.049.42,2.723,2.723,0,0,1,.81.69A1.6,1.6,0,0,1,45.988,22.212Z" transform="translate(-2.137 -19.932)"/><path d="M46.289,50.826a28.437,28.437,0,0,1-2.429,2.609A22.937,22.937,0,0,1,40.8,55.895a17.452,17.452,0,0,1-3.42,1.8,9.619,9.619,0,0,1-3.509.69q-2.821,0-2.819-2.52a8.948,8.948,0,0,1,.87-3.629,15.3,15.3,0,0,1,2.25-3.6A14.5,14.5,0,0,1,37.2,45.877a5.688,5.688,0,0,1,3.149-1.11,1.751,1.751,0,0,1,1.17.3,1.008,1.008,0,0,1,.33.78,3.332,3.332,0,0,1-.45,1.56A5.445,5.445,0,0,1,40.05,49a7.676,7.676,0,0,1-2.28,1.26,9.523,9.523,0,0,1-3.3.51,9.5,9.5,0,0,0-.66,1.709,8.01,8.01,0,0,0-.36,2.37q0,2.46,2.22,2.459a6.928,6.928,0,0,0,2.849-.66,16.416,16.416,0,0,0,2.85-1.649,20.5,20.5,0,0,0,2.55-2.16,22.286,22.286,0,0,0,1.949-2.19A0.242,0.242,0,0,1,46.289,50.826Zm-6.3-4.679a0.69,0.69,0,0,0-.78-0.78,2.12,2.12,0,0,0-1.23.45,6.612,6.612,0,0,0-1.23,1.17,15.593,15.593,0,0,0-1.14,1.56,13.5,13.5,0,0,0-.9,1.619,1.3,1.3,0,0,0,.42.09c0.2,0.021.36,0.031,0.48,0.031a4.351,4.351,0,0,0,3.059-1.23A3.849,3.849,0,0,0,39.99,46.146Z" transform="translate(-2.137 -19.932)"/><path d="M56.786,45.727a9.879,9.879,0,0,0-.75,1.02,5.9,5.9,0,0,0-.51.9,0.235,0.235,0,0,1-.24.18,0.348,0.348,0,0,1-.18-0.18,2.728,2.728,0,0,0-.33-0.39,2.216,2.216,0,0,0-.57-0.39,2.331,2.331,0,0,0-1.019-.18,3.615,3.615,0,0,0-1.74.54,9,9,0,0,0-1.679,1.2,13.252,13.252,0,0,0-2.01,2.1q-0.87,1.14-1.649,2.369t-1.5,2.52q-0.72,1.291-1.56,2.609a0.33,0.33,0,0,1-.36.18,1.262,1.262,0,0,1-.51-0.36,1,1,0,0,1-.39-0.54,2.5,2.5,0,0,1,.42-1.08q0.96-1.678,1.95-3.389t1.86-3.209q0.869-1.5,1.53-2.609a17.9,17.9,0,0,0,.9-1.65,1.07,1.07,0,0,1,.42-0.54,1.884,1.884,0,0,1,.6.3,0.941,0.941,0,0,1,.48.84,1.635,1.635,0,0,1-.21.6q-0.211.42-.48,0.87t-0.51.87q-0.24.421-.36,0.6c-0.12.2-.141,0.3-0.06,0.3a0.5,0.5,0,0,0,.3-0.18q0.6-.6,1.47-1.319a20.272,20.272,0,0,1,1.829-1.35,13.843,13.843,0,0,1,1.89-1.05,4.1,4.1,0,0,1,1.65-.42,1.59,1.59,0,0,1,.929.27A0.734,0.734,0,0,1,56.786,45.727Z" transform="translate(-2.137 -19.932)"/><path d="M56.067,57.3a2.151,2.151,0,0,1-1.319-.36,1.261,1.261,0,0,1-.48-1.08,7.91,7.91,0,0,1,1.47-3.569q1.469-2.37,3.57-5.609a5.653,5.653,0,0,1,.39-0.45,2.186,2.186,0,0,1,.33-0.27c0.2-.039.469-0.09,0.81-0.15a5.264,5.264,0,0,1,.63-0.09c0.159,0,.24.061,0.24,0.18q-2.16,3.78-3.629,6.148a7.9,7.9,0,0,0-1.47,3.689,0.611,0.611,0,0,0,.659.72,2.361,2.361,0,0,0,.78-0.18,7.659,7.659,0,0,0,1.019-.48q0.54-.3,1.02-0.629a3.34,3.34,0,0,0,.72-0.63A12.312,12.312,0,0,0,62.4,52q1.049-2.009,2.55-4.709a23.6,23.6,0,0,1,1.35-2.22,1.7,1.7,0,0,1,1.049-.9,1.178,1.178,0,0,1,.45.6,2.389,2.389,0,0,1,.21.959,3.26,3.26,0,0,1-.54,1.11q-0.54.871-1.38,2.04t-1.83,2.489q-0.99,1.321-1.89,2.46-2.16,3.3-4.349,6.809t-4.409,6.779q-2.219,3.269-4.559,6.179a39.266,39.266,0,0,1-4.829,5.069,22.618,22.618,0,0,1-5.159,3.419,12.977,12.977,0,0,1-5.609,1.26,5.883,5.883,0,0,1-3.119-.84,3.159,3.159,0,0,1-1.38-2.939,5.689,5.689,0,0,1,.09-0.99,4.2,4.2,0,0,1,.21-0.81,0.388,0.388,0,0,1,.18-0.24c0.081-.04.12,0.02,0.12,0.18a4.265,4.265,0,0,0,1.2,2.939q1.2,1.319,4.259,1.32A10.742,10.742,0,0,0,39.9,80.73a22.663,22.663,0,0,0,4.739-3.27,37.777,37.777,0,0,0,4.469-4.739q2.16-2.7,4.169-5.639t3.809-5.908q1.8-2.97,3.3-5.609,0.119-.239,0-0.18a0.716,0.716,0,0,0-.18.12,12.364,12.364,0,0,1-1.8,1.17A4.78,4.78,0,0,1,56.067,57.3Z" transform="translate(-2.137 -19.932)"/><path d="M88.7,47.767a12.223,12.223,0,0,1-2.49,2.489,5.379,5.379,0,0,1-3.329,1.11,4.337,4.337,0,0,1-2.009-.51,3.88,3.88,0,0,1-1.59-1.53q-0.421.96-1.08,2.19a20.981,20.981,0,0,1-1.56,2.459,15.355,15.355,0,0,1-2.01,2.25,11.113,11.113,0,0,1-2.369,1.68,4.653,4.653,0,0,1-1.8.48q-2.16,0-2.159-1.92a6.81,6.81,0,0,1,.39-2.22,13.611,13.611,0,0,1,.989-2.22,20.673,20.673,0,0,1,1.29-2.039,14.543,14.543,0,0,1,4.169-3.9,8.332,8.332,0,0,1,3.479-1.14,9.846,9.846,0,0,1,.36-1.11,1.1,1.1,0,0,1,.84-0.75l0.6-.12a2.1,2.1,0,0,0,.54-0.18,0.338,0.338,0,0,1,.36-0.031c0.12,0.061.14,0.171,0.06,0.33a4.994,4.994,0,0,0-.629,1.68,10.969,10.969,0,0,0-.21,2.22,5.419,5.419,0,0,0,.63,2.759,2.322,2.322,0,0,0,2.19,1.08,4.362,4.362,0,0,0,2.819-1.02,10.926,10.926,0,0,0,2.1-2.22,0.263,0.263,0,0,1,.39-0.18Q88.939,47.528,88.7,47.767Zm-9.9.42a9.344,9.344,0,0,1-.18-1.26c-0.04-.48-0.06-0.939-0.06-1.38a0.243,0.243,0,0,0-.24-0.3,2.608,2.608,0,0,0-1.379.45,7.639,7.639,0,0,0-1.44,1.2,18.542,18.542,0,0,0-1.44,1.71,21.391,21.391,0,0,0-1.32,1.979,22.2,22.2,0,0,0-1.409,2.85,6.844,6.844,0,0,0-.57,2.91,1.992,1.992,0,0,0,.15.78,0.661,0.661,0,0,0,.689.36,3.4,3.4,0,0,0,2.22-1.14A17.919,17.919,0,0,0,76.1,53.676a21.59,21.59,0,0,0,1.83-3.09A9.171,9.171,0,0,0,78.8,48.186Z" transform="translate(-2.137 -19.932)"/><path d="M102.137,50.766q-1.021,1.439-2.4,3.029a30.5,30.5,0,0,1-2.879,2.91A17.718,17.718,0,0,1,93.8,58.894a6.084,6.084,0,0,1-2.94.87,1.952,1.952,0,0,1-2.16-2.22,5.842,5.842,0,0,1,.15-1.23,8.527,8.527,0,0,1,.51-1.53q-0.36.42-.81,0.989a8.534,8.534,0,0,1-1.02,1.08,5.319,5.319,0,0,1-1.26.84,3.491,3.491,0,0,1-1.53.33,1.519,1.519,0,0,1-1.079-.39,1.6,1.6,0,0,1-.42-1.23,4.426,4.426,0,0,1,.21-1.2,14.789,14.789,0,0,1,.78-1.95Q84.8,52.027,85.79,50.2t2.55-4.529a0.884,0.884,0,0,1,.54-0.6,1.232,1.232,0,0,1,.87.51,1.58,1.58,0,0,1,.45.69,1.853,1.853,0,0,1-.36.72q-0.961,1.439-1.8,2.879t-1.47,2.7q-0.63,1.26-1.019,2.25a4.545,4.545,0,0,0-.39,1.53c0,0.6.219,0.9,0.659,0.9a2.971,2.971,0,0,0,1.65-.929,15.983,15.983,0,0,0,2.489-3.15q0.54-.959,1.11-2.009t1.11-2.01q0.54-.959,1.02-1.769t0.72-1.23a0.514,0.514,0,0,1,1.02.09,2.392,2.392,0,0,1,.3,1.23,1.785,1.785,0,0,1-.24.9q-0.721,1.08-1.53,2.13a23.444,23.444,0,0,0-1.5,2.19,14.765,14.765,0,0,0-1.17,2.4,7.677,7.677,0,0,0-.48,2.76,1.141,1.141,0,0,0,1.26,1.319,4.417,4.417,0,0,0,2.009-.629,16.087,16.087,0,0,0,2.55-1.77A27.943,27.943,0,0,0,98.988,54a33.42,33.42,0,0,0,2.79-3.539Q102.137,50.347,102.137,50.766Z" transform="translate(-2.137 -19.932)"/></svg>